<svg version="1.2" xmlns="http://www.w3.org/2000/svg" viewBox="0 0 1500 500" width="1500" height="500"><style>.a{fill:#1bc99a}</style><path class="a" d="m225.5 404.4q-16.4 0-35-4.2-18.5-4.5-36.4-12.1-17.4-8-31.5-17.8-13.6-9.9-20.5-21.3-3 0-6.8 0.4-3.8 0.4-7.9 0.4-4.6 0-11.4-1.5-6.9-1.6-12.2-5.3-5.3-3.8-5.3-10.3 0-3 4.2-5.3 4.5-2.3 16.7-2.3 23.5 0 32.6 14.4 12.5 1.6 26.6 2.3 14 0.8 28.8 0.8 15.2 0 30.4-0.8 15.5-0.7 30.7-2.6-8.4-13.3-19-26.6-10.2-13.3-16.3-21.6-14-19-27.7-39.1-13.7-20.5-26.2-46.3-4.9-9.9-4.9-20.1 0-15.2 9.5-28.5 9.5-13.6 23.9-25 14.4-11.4 30.3-19.7 16.3-8.7 29.2-14.4 13.7-5.7 27.7-8.8 14.1-3.4 27-3.4 7.6 0 14.4 1.2 9.5 1.5 18.2 10.2 9.1 8.4 15.2 20.1 6.1 11.4 6.1 22.8 0 10.6-5.4 24.6-4.9 13.7-12.9 28.1-7.9 14.1-17 26.6-9.1 12.1-17.1 19.7-7.6 7.6-12.1 7.6-6.5 0-11.8-6.8-4.9-6.9-4.9-10.7 0-2.2 1.1-2.6 10.2-7.6 21.6-20.5 11.4-12.9 20.9-27.7 9.9-15.2 15.9-29.6 6.5-14.8 6.5-25.4 0-12.2-9.1-16.3-8.8-4.6-22-4.6-12.5 0-26.6 4.2-14 3.8-24.6 9.1-34.6 17.1-53.2 33-18.6 15.6-25.8 29.2-6.8 13.7-6.8 25.1 0 11.7 11.4 31.4 11.4 19.4 38.7 52.4 10.2 12.5 22 25.4 12.1 12.5 22 24.3 17.8-3 33-7.6 15.6-4.5 27.3-10.6 0.4-0.4 1.2-0.4 1.1 0 1.1 1.2 0 3-2.7 4.5-8.3 6.1-22.3 11-14.1 4.9-31.9 8.7 7.6 9.1 12.1 17.5 4.6 8 4.6 14.4 0 15.6-12.5 22.4-12.2 6.8-31.1 6.8zm-18.6-13.3q14.8 0 24.2-5.3 9.9-5.3 9.9-16.3 0-4.5-2.3-10.2-2.2-6.1-6-12.6-35.3 5.4-72.9 5.4-22 0-42.1-2.3 9.1 12.1 23.9 21.6 15.2 9.5 32.3 14.8 17.4 4.9 33 4.9zm152.2-7.2q-12.9 0-20.1-8.3-6.8-8.4-9.5-21.3-2.3-13.2-2.3-26.5 0-9.1 0.8-17.1 0.8-8.3 1.5-14.4 1.9-15.6 5-30 3-14.4 5.6-24.6 3.1-10.3 3.8-13.3 1.6-5.3 5.7-5.3 4.2 0 9.5 5.7 5.3 5.3 7.6 8.7 8.7 2.6 17.1 6.4 8.3 3.4 13.6 7.6 5.7 4.2 5.7 9.1 0 9.5-7.9 19-8 9.5-20.1 17.4-12.2 8-24.7 13.7-1.1 9.1-1.1 18.2 0 15.2 3.7 26.6 3.8 11.4 12.9 11.4 8 0 15.2-5.7 7.6-5.7 14.1-14.5 6.4-8.7 11.3-17.4 5.4-9.1 8-15.2 0.8-2.3 3.4-2.3 1.5 0 1.5 3.5 0 3-4.5 12.9-4.6 9.1-9.5 17.4-4.6 8-9.1 14-6.5 8.4-15.9 16.4-9.1 7.9-21.3 7.9zm-7.6-83.8q13.3-7.2 23.6-17.1 10.6-10.2 10.6-22 0-4.2-6.5-8.3-6-4.6-14.4-7.6-4.5 12.1-8 25.8-3 13.6-5.3 29.2zm88.1 113.4q-3.8 0-10.7-5.7-6.4-6-9.1-15.5-1.5-6.5-2.2-17.5-0.8-11-0.8-24.6 0-22.8 0.8-49 1.1-26.2 1.1-47 0-6.9-0.4-12.9 0-6.1-0.4-10.6-0.7-0.8-4.5-1.2-3.4-0.7-6.8-1.1-3.1-0.8-3.1-0.8 0-0.7 5.7-3.4 6.1-3 17.1-3 11.4 0 14.8 4.9 3.8 4.6 3.8 8 0 0.7 0 1.9 0 1.1-0.4 1.9-4.2 20.1-8 47.4-3.8 26.9-3.8 56.9 0 7.2 0 12.9 0.4 5.3 0.4 9.5v3.4q2.3-21.3 8-40.2 5.7-19.4 11.4-42.1 4.5-19.8 7.5-30.4 3.5-11 6.9-15.2 3.8-4.5 8.7-4.5 6.8 0 9.5 5.7 2.6 5.7 3.4 15.5 0.8 9.9 1.5 22.8 0.8 12.5 3.8 26.9 4.6 21.7 10.6 31.5 6.1 9.9 10.3 9.9 4.9 0 9.8-6.1 5-6.4 9.5-14.8 4.6-8.3 8-14.4 3.8-6.4 6.1-6.4 1.1 0 1.1 1.9 0 1.5-1.1 4.9-9.5 21.2-16 33-6.4 11.4-17.8 11.4-8.7 0-17.5-7.6-4.5-3.8-9.1-12.2-4.1-8.7-7.9-18.9-3.8-10.3-7.2-19.4-3.1-9.5-5.3-15.5-2.3-6.1-3.1-6.1-0.7 0-2.6 1.5-1.6 1.5-2.3 5.3-6.5 23.6-10.6 46.7-3.8 22.8-5.7 41.3-1.9 18.3-1.9 28.1 0 5 0.4 7.2 0.7 1.9 0.7 3.1 0 2.6-2.6 2.6zm142.3-17.8q-13.2 0-21.6-8.4-8.3-8.7-12.9-22.3-4.2-13.7-5.7-29.3-1.5-15.9-1.5-29.9 0-8.4 0.4-15.2 0.4-7.2 0.7-12.1 0.8-14.5 2.7-31.5 1.9-17.5 4.6-35.7-19.8 3-36.5 4.9-16.3 1.9-27.3 1.9-1.5 0-4.5-3.8-3.1-3.8-5-7.9-1.5-4.2 0-3.8 3.8 0.4 7.2 0.7 3.5 0 7.3 0 11.3 0 25-1.5 14-1.5 35.7-3.8 3-18.9 6.4-37.5 3.8-18.6 7.6-35.3 1.9-7.6 3.4-12.2 1.9-4.5 6.8-3.8 4.6 0.8 9.5 3.5 5 2.6 6.9 6 7.5 7.2 11 18.2 3.4 10.7 3.4 23.9 0 14.1-3.4 30.8 20.8-3.1 42.8-7.2 22.4-4.6 43.3-9.1 21.2-5 38.3-8.8 2.7-0.7 0.8 0.8-1.9 1.1-5.4 2.6-3.4 1.6-5.6 2.3-24 8.4-54.7 16.3-30.7 8-61.8 14.1-6.1 25.4-17.1 52.7-11 27-23.1 52 0 3.8-0.4 7.6 0 3.4 0 7.2 0 18.6 1.9 33.4 2.3 14.4 7.2 23.5 3.4 6.4 7.6 9.1 4.5 2.3 8.7 2.3 4.2 0 8-1.5 3.8-1.6 5.7-2.3 4.1-1.9 5.6-1.5 1.6 0.3-0.3 2.2-1.2 1.6-6.9 5-5.6 3.4-14.8 3.4zm-7.2-200.3l5.3-0.8 13.3-1.5q1.9-8.7 2.7-16.7 1.1-8 1.1-15.2 0-19.7-7.2-31.5-4.2 15.2-8 31.9-3.7 16.7-7.2 33.8zm-14 92.2q9.1-20.9 17.1-42.2 7.9-21.2 12.9-40.9-5 0.7-9.5 1.5-4.6 0.8-9.1 1.5-3.8 20.5-6.8 41-2.7 20.1-4.6 39.1zm76.4 96.3q-12.9 0-20.1-8.3-6.8-8.4-9.5-21.3-2.3-13.2-2.3-26.5 0-9.1 0.8-17.1 0.8-8.3 1.5-14.4 1.9-15.6 5-30 3-14.4 5.6-24.6 3.1-10.3 3.8-13.3 1.6-5.3 5.7-5.3 4.2 0 9.5 5.7 5.3 5.3 7.6 8.7 8.7 2.6 17.1 6.4 8.3 3.4 13.6 7.6 5.7 4.2 5.7 9.1 0 9.5-7.9 19-8 9.5-20.1 17.4-12.2 8-24.7 13.7-1.1 9.1-1.1 18.2 0 15.2 3.7 26.6 3.8 11.4 12.9 11.4 8 0 15.2-5.7 7.6-5.7 14.1-14.5 6.4-8.7 11.3-17.4 5.4-9.1 8-15.2 0.8-2.3 3.4-2.3 1.5 0 1.5 3.5 0 3-4.5 12.9-4.6 9.1-9.5 17.4-4.6 8-9.1 14-6.5 8.4-15.9 16.4-9.1 7.9-21.3 7.9zm-7.6-83.8q13.3-7.2 23.6-17.1 10.6-10.2 10.6-22 0-4.2-6.5-8.3-6-4.6-14.4-7.6-4.5 12.1-8 25.8-3 13.6-5.3 29.2zm213 104.3q-16.4 0-35-4.2-18.5-4.5-36.4-12.1-17.4-8-31.5-17.8-13.6-9.9-20.5-21.3-3 0-6.8 0.4-3.8 0.4-7.9 0.4-4.6 0-11.4-1.5-6.9-1.6-12.2-5.3-5.3-3.8-5.3-10.3 0-3 4.2-5.3 4.5-2.3 16.7-2.3 23.5 0 32.6 14.4 12.5 1.6 26.6 2.3 14 0.8 28.8 0.8 15.2 0 30.4-0.8 15.5-0.7 30.7-2.6-8.4-13.3-19-26.6-10.2-13.3-16.3-21.6-14-19-27.7-39.1-13.7-20.5-26.2-46.3-4.9-9.9-4.9-20.1 0-15.2 9.5-28.5 9.5-13.6 23.9-25 14.4-11.4 30.3-19.7 16.3-8.7 29.2-14.4 13.7-5.7 27.7-8.8 14.1-3.4 27-3.4 7.6 0 14.4 1.2 9.5 1.5 18.2 10.2 9.1 8.4 15.2 20.1 6.1 11.4 6.1 22.8 0 10.6-5.4 24.6-4.9 13.7-12.9 28.1-7.9 14.1-17 26.6-9.1 12.1-17.1 19.7-7.6 7.6-12.1 7.6-6.5 0-11.8-6.8-4.9-6.9-4.9-10.7 0-2.2 1.1-2.6 10.2-7.6 21.6-20.5 11.4-12.9 20.9-27.7 9.9-15.2 15.9-29.6 6.5-14.8 6.5-25.4 0-12.2-9.1-16.3-8.8-4.6-22-4.6-12.5 0-26.6 4.2-14 3.8-24.6 9.1-34.6 17.1-53.2 33-18.6 15.6-25.8 29.2-6.8 13.7-6.8 25.1 0 11.7 11.4 31.4 11.4 19.4 38.7 52.4 10.2 12.5 22 25.4 12.1 12.5 22 24.3 17.8-3 33-7.6 15.6-4.5 27.3-10.6 0.4-0.4 1.2-0.4 1.1 0 1.1 1.2 0 3-2.7 4.5-8.3 6.1-22.3 11-14.1 4.9-31.9 8.7 7.6 9.1 12.1 17.5 4.6 8 4.6 14.4 0 15.6-12.5 22.4-12.2 6.8-31.1 6.8zm-18.6-13.3q14.8 0 24.2-5.3 9.9-5.3 9.9-16.3 0-4.5-2.3-10.2-2.2-6.1-6-12.6-35.3 5.4-72.9 5.4-22 0-42.1-2.3 9.1 12.1 23.9 21.6 15.2 9.5 32.3 14.8 17.4 4.9 33 4.9zm153.4 6.5q-22.1 0-34.6-11.8-12.1-11.7-12.1-28.8 0-18.2 7.6-36.4 7.6-18.6 20.5-35.3 12.9-16.7 29.2-29.6 16.3-12.9 34.5-20.5 18.2-7.6 35.7-7.6 10.6 0 17.4 3.8 6.8 3.8 6.8 7.6 0 1.1-0.7 1.9-1.5 1.5-4.6 8-2.6 6-5.7 14-2.6 8-4.9 16.3-1.9 8-1.9 13.7-0.7 4.1-3.8 4.1-2.6 0-6.4-6-3.4-6.5-3.4-17.1 0-6.8 2.6-14.4 3-7.6 5.7-13.7 3-6.4 3-9.1 0-1.5-1.5-1.5-1.1 0-2.3 0-7.9 0-22.3 7.2-14.5 6.8-33.8 25.4-12.9 12.6-23.9 29.2-11 16.7-17.8 33.8-6.5 17.1-6.5 31.5 0 16.7 8.4 21.6 8.7 5 19.7 5 19 0 37.9-7.2 19.4-7.3 36.1-19.8 17-12.5 28.4-28.4 0.4-0.8 0.8-0.8 0.4-0.4 0.4-0.4 0.7 0 0.7 1.5 0 1.9-1.1 5.4-0.8 3.4-2.3 5.3-7.6 11.7-21.6 24.3-14.1 12.1-34.9 20.4-20.9 8.4-49.3 8.4zm149.8-18.6q-13.6 0-20.1-8.7-6.4-9.1-6.4-22 0-13.7 6.4-33.4 6.5-19.7 13.7-37.2-6.5 4.2-13.3 7.6-6.8 3.4-12.2 3.4-3.7 0-5.6-1.9-1.6-1.9-1.6-4.2 0-1.9 1.2-5.7 1.1-3.8 3.8-7.2 3-3.4 7.2-3.4 1.5 0 1.5 1.2 0 0.3-0.4 0.7 0 0 0 0.4-0.4 0.8-0.4 1.5 0 1.5 1.9 1.5 1.2 0 2.7-0.4 1.9-0.3 3.8-1.5 3.8-1.9 8.7-4.5 4.9-3.1 11-6.1l5.7-11.4q2.3-4.1 5.3-5.7 3.1-1.9 5.7-1.9 4.2 0 7.2 1.6 3.4 1.1 6.1 3 4.2-1.9 8.7-3.4 4.9-1.9 9.5-2.7 14.4-5.3 30-8.3 15.5-3.4 30.7-3.4 8.3 0 17.1 2.2 8.7 2.3 8.7 7.2 0 1.6-3 1.6-6.1 0-14.1-1.6-7.6-1.5-15.2-1.5-9.4 0-18.2 1.2-8.7 0.7-16.3 2.6 6.1 2.7 9.9 9.1 4.2 6.5 4.2 16.3 0 10.7-5.3 25.5-5 14.8-13.7 30.3-8.4 15.6-19.4 29.2-11 13.3-22.7 21.7-11.8 8.3-22.8 8.3zm4.2-8q8 0 16.3-7.2 8.7-7.2 17.1-18.2 8.3-11 14.8-22.8 3-5.3 6.8-14.4 4.2-9.1 6.8-19.3 3.1-10.3 3.1-18.6 0-7.6-3.4-12.5-3.1-5.3-11.8-5.3-4.2 0-10.6 2.2-6.5 2.3-13.7 5.3-1.5 1.6-3 3.5-1.2 1.5-1.9 3.4-7.2 13.3-14.4 29.6-7.2 15.9-12.2 31.1-4.5 15.2-4.5 26.5 0 16.7 10.6 16.7zm174.9-1.1q-14 0-18.9-15.6-5-15.9-5-39 0-12.6 0.8-24.3 0.7-12.2 1.1-20.1-6-0.8-11.7-2.3-5.4-1.9-8.4-3.8-0.4 2.7-3 11-2.7 8-6.5 18.6-3.4 10.6-7.6 20.9-4.1 10.2-7.9 17-3.8 6.5-6.9 6.5-1.5 0-1.5-2.3 0-3 2.7-8.3 7.6-15.6 13.6-31.9 6.1-16.3 11-33.8-3.8-1.5-5.6-5.3-1.6-4.2-1.6-9.1 0-13.7 3.8-22.4 4.2-8.7 9.1-12.9 5-4.5 7.6-4.5 4.6 0 4.6 7.6 0 3.8-1.9 11.7-1.9 7.6-4.6 16-2.6 7.9-4.5 12.9 0 0 2.2 1.5 2.3 1.5 5 1.5 3.8 0 7.2-4.6 3.8-4.9 8.7-9.5 5.3-4.9 13.3-4.9 4.2 0 7.2 1.2 3 0.7 3 3v1.1q-3.8 9.5-5.7 25.1-1.9 15.1-1.9 30.7 0 13.7 1.6 25.8 1.5 11.8 4.5 19 3.4 7.2 8 7.2 4.5 0 8.7-5 4.2-4.9 7.2-10.6 3.4-5.7 4.6-8.3 7.9-14.8 9.8-19 1.9-4.5 5-4.5 1.1 0 1.1 1.5 0 0.7-0.7 3.8-4.6 12.5-11.4 26.1-6.5 13.3-15.6 22.8-9.1 9.5-20.5 9.5zm74.9 14q-12.9 0-20.1-8.3-6.8-8.4-9.5-21.3-2.3-13.2-2.3-26.5 0-9.1 0.8-17.1 0.8-8.3 1.5-14.4 1.9-15.6 5-30 3-14.4 5.6-24.6 3.1-10.3 3.8-13.3 1.6-5.3 5.7-5.3 4.2 0 9.5 5.7 5.3 5.3 7.6 8.7 8.7 2.6 17.1 6.4 8.3 3.4 13.6 7.6 5.7 4.2 5.7 9.1 0 9.5-7.9 19-8 9.5-20.1 17.4-12.2 8-24.7 13.7-1.1 9.1-1.1 18.2 0 15.2 3.7 26.6 3.8 11.4 12.9 11.4 8 0 15.2-5.7 7.6-5.7 14.1-14.5 6.4-8.7 11.3-17.4 5.4-9.1 8-15.2 0.8-2.3 3.4-2.3 1.5 0 1.5 3.5 0 3-4.5 12.9-4.6 9.1-9.5 17.4-4.6 8-9.1 14-6.5 8.4-15.9 16.4-9.1 7.9-21.3 7.9zm-7.6-83.8q13.3-7.2 23.6-17.1 10.6-10.2 10.6-22 0-4.2-6.5-8.3-6-4.6-14.4-7.6-4.5 12.1-8 25.8-3 13.6-5.3 29.2z"/></svg>